<?xml version="1.0" encoding="UTF-8" standalone="no"?>
<!DOCTYPE svg PUBLIC "-//W3C//DTD SVG 1.1//EN" "http://www.w3.org/Graphics/SVG/1.1/DTD/svg11.dtd">
<svg width="100%" height="100%" viewBox="0 0 30 30" version="1.1" xmlns="http://www.w3.org/2000/svg" xmlns:xlink="http://www.w3.org/1999/xlink" xml:space="preserve" xmlns:serif="http://www.serif.com/" style="fill-rule:evenodd;clip-rule:evenodd;stroke-linecap:round;stroke-linejoin:round;stroke-miterlimit:1.5;">
    <g>
        <ellipse cx="15" cy="15" rx="14.762" ry="14.792" style="fill:rgb(15,97,0);"/>
        <ellipse cx="15" cy="15" rx="7.829" ry="7.844" style="fill:rgb(15,97,0);stroke:white;stroke-width:0.3px;"/>
        <ellipse cx="15.013" cy="15.065" rx="14.05" ry="14.078" style="fill:none;stroke:white;stroke-width:0.3px;"/>
        <g transform="matrix(0.0407433,0,0,0.0408243,-34.2662,-13.3215)">
            <g transform="matrix(0.686823,0.726825,-0.726825,0.686823,942.483,-433.223)">
                <path d="M1025.42,869.27L1022.14,860.645L994.206,860.645L990.924,869.457C989.643,872.895 988.549,875.215 987.643,876.418C986.737,877.621 985.252,878.223 983.19,878.223C981.44,878.223 979.893,877.582 978.549,876.301C977.206,875.02 976.534,873.567 976.534,871.942C976.534,871.004 976.69,870.035 977.002,869.035C977.315,868.035 977.831,866.645 978.549,864.864L996.127,820.239C996.627,818.957 997.229,817.418 997.932,815.621C998.635,813.824 999.385,812.332 1000.18,811.145C1000.98,809.957 1002.03,808.996 1003.32,808.262C1004.62,807.528 1006.22,807.16 1008.13,807.16C1010.07,807.16 1011.68,807.528 1012.98,808.262C1014.28,808.996 1015.32,809.942 1016.12,811.098C1016.92,812.254 1017.59,813.496 1018.13,814.824C1018.68,816.153 1019.38,817.926 1020.22,820.145L1038.17,864.489C1039.58,867.864 1040.28,870.317 1040.28,871.848C1040.28,873.442 1039.62,874.903 1038.29,876.231C1036.96,877.559 1035.36,878.223 1033.49,878.223C1032.39,878.223 1031.46,878.028 1030.67,877.637C1029.89,877.246 1029.24,876.715 1028.71,876.043C1028.17,875.371 1027.6,874.34 1027,872.949C1026.38,871.559 1025.86,870.332 1025.42,869.27ZM997.862,850.192L1018.39,850.192L1008.03,821.832L997.862,850.192Z" style="fill:white;fill-rule:nonzero;"/>
            </g>
            <g transform="matrix(0.870167,0.492758,-0.492758,0.870167,599.434,-390.683)">
                <path d="M1062.24,880.723L1062.24,930.738L1090.46,930.738C1092.71,930.738 1094.43,931.285 1095.64,932.379C1096.84,933.473 1097.44,934.848 1097.44,936.504C1097.44,938.191 1096.85,939.559 1095.66,940.606C1094.47,941.652 1092.74,942.176 1090.46,942.176L1056.85,942.176C1053.82,942.176 1051.64,941.504 1050.31,940.16C1048.98,938.816 1048.32,936.645 1048.32,933.645L1048.32,880.723C1048.32,877.91 1048.95,875.801 1050.22,874.395C1051.48,872.988 1053.14,872.285 1055.21,872.285C1057.3,872.285 1059,872.981 1060.29,874.371C1061.59,875.762 1062.24,877.879 1062.24,880.723Z" style="fill:white;fill-rule:nonzero;"/>
            </g>
            <g transform="matrix(0.970877,0.239577,-0.239577,0.970877,267.354,-238.34)">
                <path d="M1135.17,919.067L1135.17,969.083L1163.39,969.083C1165.64,969.083 1167.36,969.63 1168.57,970.724C1169.77,971.817 1170.37,973.192 1170.37,974.849C1170.37,976.536 1169.78,977.903 1168.59,978.95C1167.4,979.997 1165.67,980.521 1163.39,980.521L1129.78,980.521C1126.75,980.521 1124.57,979.849 1123.24,978.505C1121.91,977.161 1121.25,974.989 1121.25,971.989L1121.25,919.067C1121.25,916.255 1121.88,914.146 1123.14,912.739C1124.41,911.333 1126.07,910.63 1128.14,910.63C1130.23,910.63 1131.92,911.325 1133.22,912.716C1134.52,914.106 1135.17,916.224 1135.17,919.067Z" style="fill:white;fill-rule:nonzero;"/>
            </g>
            <g transform="matrix(0.999335,-0.0364517,0.0364517,0.999335,-35.5832,44.2135)">
                <path d="M1247.52,939.972L1216.16,939.972L1216.16,956.847L1245.04,956.847C1247.16,956.847 1248.75,957.324 1249.79,958.277C1250.84,959.23 1251.36,960.488 1251.36,962.05C1251.36,963.613 1250.85,964.886 1249.82,965.871C1248.79,966.855 1247.19,967.347 1245.04,967.347L1216.16,967.347L1216.16,986.894L1248.6,986.894C1250.79,986.894 1252.43,987.402 1253.54,988.418C1254.65,989.433 1255.21,990.785 1255.21,992.472C1255.21,994.097 1254.65,995.418 1253.54,996.433C1252.43,997.449 1250.79,997.957 1248.6,997.957L1210.77,997.957C1207.74,997.957 1205.56,997.285 1204.23,995.941C1202.9,994.597 1202.24,992.425 1202.24,989.425L1202.24,937.769C1202.24,935.769 1202.54,934.136 1203.13,932.871C1203.72,931.605 1204.65,930.683 1205.92,930.105C1207.18,929.527 1208.8,929.238 1210.77,929.238L1247.52,929.238C1249.74,929.238 1251.39,929.73 1252.47,930.714C1253.54,931.699 1254.08,932.988 1254.08,934.582C1254.08,936.207 1253.54,937.511 1252.47,938.496C1251.39,939.48 1249.74,939.972 1247.52,939.972Z" style="fill:white;fill-rule:nonzero;"/>
            </g>
            <g transform="matrix(0.882913,-0.469536,0.469536,0.882913,-303.313,738.69)">
                <path d="M1363.64,950.746L1350.89,950.746L1350.89,970.199C1350.89,972.98 1350.24,975.09 1348.93,976.527C1347.61,977.965 1345.96,978.683 1343.96,978.683C1341.86,978.683 1340.18,977.972 1338.89,976.551C1337.61,975.129 1336.97,973.043 1336.97,970.293L1336.97,917.324C1336.97,914.262 1337.68,912.074 1339.08,910.762C1340.49,909.449 1342.72,908.793 1345.79,908.793L1363.64,908.793C1368.93,908.793 1372.99,909.199 1375.83,910.012C1378.64,910.793 1381.08,912.09 1383.12,913.902C1385.17,915.715 1386.72,917.933 1387.79,920.558C1388.85,923.183 1389.38,926.137 1389.38,929.418C1389.38,936.418 1387.22,941.722 1382.91,945.332C1378.6,948.941 1372.18,950.746 1363.64,950.746ZM1360.27,919.246L1350.89,919.246L1350.89,940.246L1360.27,940.246C1363.55,940.246 1366.29,939.902 1368.5,939.215C1370.7,938.527 1372.38,937.402 1373.54,935.84C1374.69,934.277 1375.27,932.23 1375.27,929.699C1375.27,926.668 1374.38,924.199 1372.6,922.293C1370.6,920.262 1366.49,919.246 1360.27,919.246Z" style="fill:white;fill-rule:nonzero;"/>
            </g>
            <g transform="matrix(0.728867,-0.684655,0.684655,0.728867,-263.117,1212.57)">
                <path d="M1450.88,930.713L1447.6,922.088L1419.67,922.088L1416.38,930.901C1415.1,934.338 1414.01,936.658 1413.1,937.862C1412.2,939.065 1410.71,939.666 1408.65,939.666C1406.9,939.666 1405.35,939.026 1404.01,937.744C1402.67,936.463 1401.99,935.01 1401.99,933.385C1401.99,932.448 1402.15,931.479 1402.46,930.479C1402.78,929.479 1403.29,928.088 1404.01,926.307L1421.59,881.682C1422.09,880.401 1422.69,878.862 1423.39,877.065C1424.1,875.268 1424.85,873.776 1425.64,872.588C1426.44,871.401 1427.49,870.44 1428.78,869.705C1430.08,868.971 1431.68,868.604 1433.59,868.604C1435.53,868.604 1437.14,868.971 1438.44,869.705C1439.74,870.44 1440.78,871.385 1441.58,872.541C1442.38,873.698 1443.05,874.94 1443.6,876.268C1444.14,877.596 1444.84,879.369 1445.68,881.588L1463.63,925.932C1465.04,929.307 1465.74,931.76 1465.74,933.291C1465.74,934.885 1465.08,936.346 1463.75,937.674C1462.42,939.002 1460.82,939.666 1458.95,939.666C1457.85,939.666 1456.92,939.471 1456.13,939.08C1455.35,938.69 1454.7,938.158 1454.17,937.487C1453.63,936.815 1453.06,935.783 1452.45,934.393C1451.85,933.002 1451.32,931.776 1450.88,930.713ZM1423.32,911.635L1443.85,911.635L1433.49,883.276L1423.32,911.635ZM1431.38,847.651C1434.04,847.651 1436.32,848.604 1438.23,850.51C1440.13,852.416 1441.09,854.698 1441.09,857.354C1441.09,860.01 1440.13,862.291 1438.23,864.198C1436.32,866.104 1434.04,867.057 1431.38,867.057C1429.6,867.057 1427.98,866.619 1426.51,865.744C1425.04,864.869 1423.87,863.698 1422.99,862.229C1422.12,860.76 1421.68,859.135 1421.68,857.354C1421.68,854.698 1422.63,852.416 1424.54,850.51C1426.45,848.604 1428.73,847.651 1431.38,847.651ZM1431.38,852.573C1430.01,852.573 1428.87,853.026 1427.96,853.932C1427.06,854.838 1426.6,855.979 1426.6,857.354C1426.6,858.698 1427.06,859.815 1427.99,860.705C1428.91,861.596 1430.04,862.041 1431.38,862.041C1432.26,862.041 1433.06,861.838 1433.8,861.432C1434.53,861.026 1435.11,860.463 1435.53,859.744C1435.95,859.026 1436.17,858.229 1436.17,857.354C1436.17,856.698 1436.04,856.065 1435.79,855.455C1435.54,854.846 1435.21,854.338 1434.81,853.932C1434.4,853.526 1433.89,853.198 1433.28,852.948C1432.67,852.698 1432.04,852.573 1431.38,852.573Z" style="fill:white;fill-rule:nonzero;"/>
            </g>
        </g>
        <g transform="matrix(0.0353737,0,0,0.0354441,-29.092,-7.47397)">
            <g transform="matrix(0.483825,-0.875165,0.875165,0.483825,37.5627,1147.79)">
                <path d="M1040.37,484.069L1012.95,484.069L1012.95,501.647L1035.87,501.647C1038,501.647 1039.59,502.124 1040.63,503.077C1041.68,504.03 1042.2,505.303 1042.2,506.897C1042.2,508.491 1041.67,509.756 1040.61,510.694C1039.55,511.631 1037.97,512.1 1035.87,512.1L1012.95,512.1L1012.95,534.741C1012.95,537.616 1012.3,539.749 1011.01,541.139C1009.71,542.53 1008.05,543.225 1006.01,543.225C1003.95,543.225 1002.27,542.522 1000.98,541.116C999.679,539.71 999.031,537.585 999.031,534.741L999.031,481.866C999.031,479.866 999.328,478.233 999.921,476.967C1000.51,475.702 1001.45,474.78 1002.71,474.202C1003.98,473.624 1005.59,473.335 1007.56,473.335L1040.37,473.335C1042.59,473.335 1044.24,473.827 1045.32,474.811C1046.4,475.795 1046.94,477.085 1046.94,478.678C1046.94,480.303 1046.4,481.608 1045.32,482.592C1044.24,483.577 1042.59,484.069 1040.37,484.069Z" style="fill:white;fill-rule:nonzero;stroke:white;stroke-width:0.85px;stroke-linecap:butt;stroke-miterlimit:1.41421;"/>
            </g>
            <g transform="matrix(0.685705,-0.727879,0.727879,0.685705,-18.4925,902.22)">
                <path d="M1043.55,465.211L1043.55,411.07C1043.55,408.258 1044.19,406.148 1045.47,404.742C1046.75,403.336 1048.41,402.633 1050.44,402.633C1052.53,402.633 1054.23,403.328 1055.52,404.719C1056.82,406.109 1057.47,408.227 1057.47,411.07L1057.47,465.211C1057.47,468.055 1056.82,470.18 1055.52,471.586C1054.23,472.992 1052.53,473.695 1050.44,473.695C1048.44,473.695 1046.79,472.984 1045.49,471.563C1044.2,470.141 1043.55,468.023 1043.55,465.211Z" style="fill:white;fill-rule:nonzero;stroke:white;stroke-width:0.85px;stroke-linecap:butt;stroke-miterlimit:1.41421;"/>
            </g>
            <g transform="matrix(0.855841,-0.517238,0.517238,0.855841,-69.2337,617.682)">
                <path d="M1110.34,433.046L1089.34,433.046C1086.31,433.046 1084.15,432.366 1082.85,431.007C1081.55,429.647 1080.91,427.483 1080.91,424.515L1080.91,372.858C1080.91,369.827 1081.57,367.647 1082.9,366.319C1084.23,364.991 1086.38,364.327 1089.34,364.327L1111.61,364.327C1114.89,364.327 1117.73,364.53 1120.14,364.936C1122.55,365.343 1124.7,366.124 1126.61,367.28C1128.23,368.249 1129.67,369.475 1130.92,370.96C1132.17,372.444 1133.12,374.085 1133.78,375.882C1134.44,377.679 1134.77,379.577 1134.77,381.577C1134.77,388.452 1131.33,393.483 1124.45,396.671C1133.48,399.546 1138,405.14 1138,413.452C1138,417.296 1137.02,420.757 1135.05,423.835C1133.08,426.913 1130.42,429.186 1127.08,430.655C1124.98,431.53 1122.58,432.147 1119.86,432.507C1117.14,432.866 1113.97,433.046 1110.34,433.046ZM1109.31,402.53L1094.83,402.53L1094.83,422.593L1109.78,422.593C1119.19,422.593 1123.89,419.202 1123.89,412.421C1123.89,408.952 1122.67,406.436 1120.23,404.874C1117.8,403.311 1114.16,402.53 1109.31,402.53ZM1094.83,374.78L1094.83,392.546L1107.58,392.546C1111.05,392.546 1113.73,392.218 1115.62,391.561C1117.51,390.905 1118.95,389.655 1119.95,387.811C1120.73,386.499 1121.12,385.03 1121.12,383.405C1121.12,379.936 1119.89,377.632 1117.42,376.491C1114.95,375.35 1111.19,374.78 1106.12,374.78L1094.83,374.78Z" style="fill:white;fill-rule:nonzero;stroke:white;stroke-width:0.85px;stroke-linecap:butt;stroke-miterlimit:1.41421;"/>
            </g>
            <g transform="matrix(0.974429,-0.224697,0.224697,0.974429,-57.6382,269.542)">
                <path d="M1208.21,330.023L1176.85,330.023L1176.85,346.898L1205.72,346.898C1207.85,346.898 1209.43,347.374 1210.48,348.327C1211.53,349.28 1212.05,350.538 1212.05,352.101C1212.05,353.663 1211.54,354.937 1210.51,355.921C1209.47,356.905 1207.88,357.398 1205.72,357.398L1176.85,357.398L1176.85,376.944L1209.29,376.944C1211.47,376.944 1213.12,377.452 1214.23,378.468C1215.34,379.484 1215.9,380.835 1215.9,382.523C1215.9,384.148 1215.34,385.468 1214.23,386.484C1213.12,387.499 1211.47,388.007 1209.29,388.007L1171.46,388.007C1168.43,388.007 1166.25,387.335 1164.92,385.991C1163.59,384.648 1162.93,382.476 1162.93,379.476L1162.93,327.819C1162.93,325.819 1163.22,324.187 1163.82,322.921C1164.41,321.655 1165.34,320.734 1166.61,320.155C1167.87,319.577 1169.49,319.288 1171.46,319.288L1208.21,319.288C1210.43,319.288 1212.08,319.78 1213.15,320.765C1214.23,321.749 1214.77,323.038 1214.77,324.632C1214.77,326.257 1214.23,327.562 1213.15,328.546C1212.08,329.53 1210.43,330.023 1208.21,330.023Z" style="fill:white;fill-rule:nonzero;stroke:white;stroke-width:0.85px;stroke-linecap:butt;stroke-miterlimit:1.41421;"/>
            </g>
            <g transform="matrix(0.997121,0.0758233,-0.0758233,0.997121,31.7027,-93.1307)">
                <path d="M1268.55,341.555L1263.67,341.555L1263.67,363.633C1263.67,366.54 1263.03,368.68 1261.75,370.055C1260.47,371.43 1258.8,372.118 1256.73,372.118C1254.51,372.118 1252.8,371.399 1251.58,369.961C1250.36,368.524 1249.75,366.415 1249.75,363.633L1249.75,310.758C1249.75,307.758 1250.42,305.586 1251.76,304.243C1253.11,302.899 1255.28,302.227 1258.28,302.227L1280.92,302.227C1284.05,302.227 1286.72,302.36 1288.94,302.626C1291.15,302.891 1293.15,303.43 1294.94,304.243C1297.09,305.149 1299,306.446 1300.65,308.133C1302.31,309.821 1303.57,311.782 1304.43,314.016C1305.29,316.251 1305.72,318.618 1305.72,321.118C1305.72,326.243 1304.27,330.336 1301.38,333.399C1298.49,336.461 1294.11,338.633 1288.23,339.915C1290.7,341.227 1293.06,343.165 1295.31,345.727C1297.56,348.29 1299.57,351.016 1301.34,353.907C1303.1,356.797 1304.48,359.407 1305.46,361.735C1306.44,364.063 1306.94,365.665 1306.94,366.54C1306.94,367.446 1306.65,368.344 1306.07,369.235C1305.49,370.126 1304.7,370.829 1303.7,371.344C1302.7,371.86 1301.55,372.118 1300.23,372.118C1298.67,372.118 1297.36,371.751 1296.3,371.016C1295.23,370.282 1294.32,369.352 1293.55,368.227C1292.79,367.102 1291.75,365.446 1290.44,363.258L1284.86,353.977C1282.86,350.571 1281.07,347.977 1279.49,346.196C1277.91,344.415 1276.31,343.196 1274.69,342.54C1273.06,341.883 1271.01,341.555 1268.55,341.555ZM1276.51,312.68L1263.67,312.68L1263.67,331.571L1276.14,331.571C1279.48,331.571 1282.3,331.282 1284.58,330.704C1286.86,330.126 1288.6,329.141 1289.8,327.751C1291.01,326.36 1291.61,324.446 1291.61,322.008C1291.61,320.102 1291.12,318.422 1290.15,316.969C1289.19,315.516 1287.84,314.43 1286.12,313.711C1284.5,313.024 1281.3,312.68 1276.51,312.68Z" style="fill:white;fill-rule:nonzero;stroke:white;stroke-width:0.85px;stroke-linecap:butt;stroke-miterlimit:1.41421;"/>
            </g>
            <g transform="matrix(0.856219,0.516612,-0.516612,0.856219,404.54,-655.898)">
                <path d="M1432.74,341.585L1417.55,341.585L1417.55,391.507C1417.55,394.382 1416.91,396.515 1415.63,397.906C1414.35,399.296 1412.69,399.992 1410.66,399.992C1408.6,399.992 1406.92,399.289 1405.62,397.882C1404.32,396.476 1403.67,394.351 1403.67,391.507L1403.67,341.585L1388.49,341.585C1386.11,341.585 1384.35,341.062 1383.19,340.015C1382.03,338.968 1381.46,337.585 1381.46,335.867C1381.46,334.085 1382.06,332.679 1383.26,331.648C1384.46,330.617 1386.21,330.101 1388.49,330.101L1432.74,330.101C1435.14,330.101 1436.93,330.632 1438.1,331.695C1439.28,332.757 1439.86,334.148 1439.86,335.867C1439.86,337.585 1439.27,338.968 1438.08,340.015C1436.89,341.062 1435.11,341.585 1432.74,341.585Z" style="fill:white;fill-rule:nonzero;stroke:white;stroke-width:0.85px;stroke-linecap:butt;stroke-miterlimit:1.41421;"/>
            </g>
            <g transform="matrix(0.702397,0.711785,-0.711785,0.702397,749.263,-899.305)">
                <path d="M1458.14,439.053L1458.14,384.912C1458.14,382.099 1458.78,379.99 1460.06,378.584C1461.34,377.178 1463,376.474 1465.03,376.474C1467.13,376.474 1468.82,377.17 1470.12,378.56C1471.41,379.951 1472.06,382.068 1472.06,384.912L1472.06,439.053C1472.06,441.896 1471.41,444.021 1470.12,445.428C1468.82,446.834 1467.13,447.537 1465.03,447.537C1463.03,447.537 1461.38,446.826 1460.09,445.404C1458.79,443.982 1458.14,441.865 1458.14,439.053Z" style="fill:white;fill-rule:nonzero;stroke:white;stroke-width:0.85px;stroke-linecap:butt;stroke-miterlimit:1.41421;"/>
            </g>
            <g transform="matrix(0.487943,0.872876,-0.872876,0.487943,1186.03,-1049.81)">
                <path d="M1508.94,424.521L1508.94,474.537L1537.16,474.537C1539.41,474.537 1541.13,475.083 1542.34,476.177C1543.54,477.271 1544.14,478.646 1544.14,480.302C1544.14,481.99 1543.55,483.357 1542.36,484.404C1541.17,485.451 1539.44,485.974 1537.16,485.974L1503.55,485.974C1500.52,485.974 1498.34,485.302 1497.01,483.958C1495.68,482.615 1495.02,480.443 1495.02,477.443L1495.02,424.521C1495.02,421.708 1495.65,419.599 1496.91,418.193C1498.18,416.787 1499.84,416.083 1501.91,416.083C1504,416.083 1505.69,416.779 1506.99,418.169C1508.29,419.56 1508.94,421.677 1508.94,424.521Z" style="fill:white;fill-rule:nonzero;stroke:white;stroke-width:0.85px;stroke-linecap:butt;stroke-miterlimit:1.41421;"/>
            </g>
        </g>
        <rect x="2.275" y="11.969" width="25.449" height="7.254" style="fill:rgb(15,97,0);"/>
        <path d="M5.424,16.378C5.424,16.614 5.364,16.826 5.242,17.014C5.121,17.202 4.944,17.349 4.71,17.456C4.476,17.562 4.199,17.615 3.879,17.615C3.495,17.615 3.178,17.543 2.928,17.397C2.751,17.292 2.607,17.153 2.496,16.978C2.386,16.803 2.33,16.633 2.33,16.468C2.33,16.373 2.364,16.291 2.43,16.222C2.496,16.154 2.581,16.12 2.684,16.12C2.767,16.12 2.837,16.146 2.895,16.2C2.952,16.253 3.001,16.332 3.042,16.436C3.092,16.561 3.145,16.664 3.203,16.748C3.26,16.831 3.341,16.9 3.446,16.954C3.55,17.008 3.688,17.035 3.857,17.035C4.091,17.035 4.281,16.981 4.427,16.872C4.573,16.762 4.646,16.626 4.646,16.463C4.646,16.334 4.607,16.228 4.528,16.148C4.449,16.067 4.347,16.005 4.223,15.963C4.098,15.92 3.931,15.875 3.722,15.827C3.442,15.761 3.208,15.685 3.02,15.597C2.831,15.509 2.681,15.389 2.571,15.238C2.46,15.086 2.405,14.898 2.405,14.672C2.405,14.458 2.463,14.267 2.58,14.1C2.697,13.933 2.866,13.805 3.087,13.716C3.309,13.626 3.569,13.581 3.868,13.581C4.107,13.581 4.314,13.611 4.488,13.67C4.663,13.73 4.807,13.809 4.922,13.907C5.037,14.006 5.122,14.109 5.175,14.217C5.228,14.325 5.254,14.431 5.254,14.534C5.254,14.628 5.221,14.713 5.155,14.788C5.088,14.863 5.006,14.901 4.906,14.901C4.816,14.901 4.748,14.878 4.701,14.833C4.654,14.788 4.603,14.714 4.548,14.611C4.477,14.464 4.392,14.349 4.293,14.266C4.194,14.184 4.035,14.143 3.815,14.143C3.611,14.143 3.447,14.188 3.322,14.277C3.198,14.367 3.135,14.474 3.135,14.6C3.135,14.678 3.156,14.746 3.199,14.803C3.241,14.859 3.3,14.908 3.374,14.949C3.449,14.99 3.524,15.022 3.6,15.045C3.676,15.068 3.802,15.102 3.977,15.146C4.197,15.197 4.395,15.254 4.573,15.316C4.751,15.378 4.902,15.454 5.027,15.542C5.152,15.631 5.249,15.743 5.319,15.879C5.389,16.015 5.424,16.181 5.424,16.378Z" style="fill:white;fill-rule:nonzero;stroke:white;stroke-width:0.03px;stroke-linecap:butt;stroke-miterlimit:1.41421;"/>
        <path d="M7.063,14.06L7.063,15.428L8.611,13.81C8.685,13.732 8.749,13.674 8.801,13.637C8.853,13.6 8.923,13.581 9.009,13.581C9.123,13.581 9.214,13.615 9.284,13.681C9.354,13.748 9.389,13.829 9.389,13.925C9.389,14.04 9.33,14.154 9.211,14.268L8.252,15.178L9.357,16.764C9.435,16.874 9.493,16.97 9.532,17.052C9.571,17.135 9.591,17.215 9.591,17.293C9.591,17.38 9.557,17.456 9.489,17.519C9.42,17.583 9.328,17.615 9.211,17.615C9.101,17.615 9.012,17.592 8.943,17.545C8.874,17.498 8.815,17.435 8.768,17.357C8.72,17.279 8.677,17.208 8.64,17.144L7.708,15.707L7.063,16.327L7.063,17.134C7.063,17.297 7.025,17.418 6.951,17.497C6.877,17.576 6.781,17.615 6.664,17.615C6.597,17.615 6.532,17.598 6.47,17.562C6.408,17.527 6.361,17.479 6.327,17.418C6.302,17.369 6.287,17.311 6.282,17.245C6.277,17.18 6.274,17.085 6.274,16.961L6.274,14.06C6.274,13.901 6.309,13.781 6.379,13.701C6.449,13.621 6.544,13.581 6.664,13.581C6.783,13.581 6.879,13.621 6.952,13.7C7.026,13.779 7.063,13.899 7.063,14.06Z" style="fill:white;fill-rule:nonzero;stroke:white;stroke-width:0.03px;stroke-linecap:butt;stroke-miterlimit:1.41421;"/>
        <path d="M10.502,17.134L10.502,14.06C10.502,13.901 10.538,13.781 10.61,13.701C10.683,13.621 10.777,13.581 10.892,13.581C11.011,13.581 11.107,13.621 11.18,13.7C11.254,13.779 11.29,13.899 11.29,14.06L11.29,17.134C11.29,17.295 11.254,17.416 11.18,17.496C11.107,17.575 11.011,17.615 10.892,17.615C10.779,17.615 10.685,17.575 10.612,17.494C10.538,17.413 10.502,17.293 10.502,17.134Z" style="fill:white;fill-rule:nonzero;stroke:white;stroke-width:0.03px;stroke-linecap:butt;stroke-miterlimit:1.41421;"/>
        <path d="M13.375,14.055L14.891,16.354L14.891,14.034C14.891,13.883 14.923,13.77 14.988,13.694C15.053,13.619 15.14,13.581 15.25,13.581C15.363,13.581 15.452,13.619 15.518,13.694C15.583,13.77 15.616,13.883 15.616,14.034L15.616,17.102C15.616,17.444 15.474,17.615 15.191,17.615C15.12,17.615 15.057,17.605 15,17.585C14.943,17.564 14.89,17.532 14.841,17.488C14.791,17.443 14.745,17.391 14.703,17.332C14.66,17.272 14.618,17.212 14.575,17.15L13.096,14.877L13.096,17.163C13.096,17.312 13.061,17.425 12.992,17.501C12.923,17.577 12.835,17.615 12.727,17.615C12.615,17.615 12.526,17.577 12.459,17.5C12.391,17.422 12.358,17.31 12.358,17.163L12.358,14.153C12.358,14.026 12.372,13.925 12.4,13.853C12.434,13.773 12.49,13.708 12.567,13.657C12.645,13.607 12.729,13.581 12.82,13.581C12.891,13.581 12.951,13.593 13.002,13.616C13.052,13.639 13.096,13.67 13.134,13.709C13.172,13.748 13.211,13.799 13.251,13.861C13.291,13.923 13.332,13.988 13.375,14.055Z" style="fill:white;fill-rule:nonzero;stroke:white;stroke-width:0.03px;stroke-linecap:butt;stroke-miterlimit:1.41421;"/>
        <path d="M19.613,16.378C19.613,16.614 19.552,16.826 19.431,17.014C19.309,17.202 19.132,17.349 18.898,17.456C18.665,17.562 18.388,17.615 18.067,17.615C17.683,17.615 17.366,17.543 17.116,17.397C16.939,17.292 16.795,17.153 16.685,16.978C16.574,16.803 16.519,16.633 16.519,16.468C16.519,16.373 16.552,16.291 16.618,16.222C16.685,16.154 16.769,16.12 16.872,16.12C16.955,16.12 17.026,16.146 17.083,16.2C17.141,16.253 17.19,16.332 17.231,16.436C17.28,16.561 17.334,16.664 17.391,16.748C17.449,16.831 17.53,16.9 17.634,16.954C17.739,17.008 17.876,17.035 18.046,17.035C18.28,17.035 18.469,16.981 18.615,16.872C18.762,16.762 18.835,16.626 18.835,16.463C18.835,16.334 18.795,16.228 18.716,16.148C18.638,16.067 18.536,16.005 18.411,15.963C18.286,15.92 18.119,15.875 17.91,15.827C17.631,15.761 17.397,15.685 17.208,15.597C17.019,15.509 16.87,15.389 16.759,15.238C16.649,15.086 16.593,14.898 16.593,14.672C16.593,14.458 16.652,14.267 16.768,14.1C16.885,13.933 17.054,13.805 17.276,13.716C17.497,13.626 17.757,13.581 18.056,13.581C18.295,13.581 18.502,13.611 18.677,13.67C18.851,13.73 18.996,13.809 19.111,13.907C19.226,14.006 19.31,14.109 19.363,14.217C19.416,14.325 19.443,14.431 19.443,14.534C19.443,14.628 19.41,14.713 19.343,14.788C19.277,14.863 19.194,14.901 19.095,14.901C19.005,14.901 18.936,14.878 18.889,14.833C18.842,14.788 18.791,14.714 18.736,14.611C18.665,14.464 18.581,14.349 18.481,14.266C18.382,14.184 18.223,14.143 18.003,14.143C17.8,14.143 17.636,14.188 17.511,14.277C17.386,14.367 17.323,14.474 17.323,14.6C17.323,14.678 17.345,14.746 17.387,14.803C17.43,14.859 17.488,14.908 17.563,14.949C17.637,14.99 17.712,15.022 17.788,15.045C17.864,15.068 17.99,15.102 18.165,15.146C18.385,15.197 18.584,15.254 18.762,15.316C18.939,15.378 19.091,15.454 19.216,15.542C19.34,15.631 19.438,15.743 19.508,15.879C19.578,16.015 19.613,16.181 19.613,16.378Z" style="fill:white;fill-rule:nonzero;stroke:white;stroke-width:0.03px;stroke-linecap:butt;stroke-miterlimit:1.41421;"/>
        <path d="M22.985,14.3L22.125,14.3L22.125,17.134C22.125,17.297 22.088,17.418 22.016,17.497C21.943,17.576 21.849,17.615 21.734,17.615C21.617,17.615 21.522,17.575 21.449,17.496C21.375,17.416 21.339,17.295 21.339,17.134L21.339,14.3L20.478,14.3C20.344,14.3 20.244,14.27 20.178,14.211C20.113,14.151 20.08,14.073 20.08,13.975C20.08,13.874 20.114,13.794 20.182,13.736C20.25,13.677 20.349,13.648 20.478,13.648L22.985,13.648C23.121,13.648 23.223,13.678 23.289,13.738C23.356,13.799 23.389,13.878 23.389,13.975C23.389,14.073 23.355,14.151 23.288,14.211C23.221,14.27 23.12,14.3 22.985,14.3Z" style="fill:white;fill-rule:nonzero;stroke:white;stroke-width:0.03px;stroke-linecap:butt;stroke-miterlimit:1.41421;"/>
        <path d="M24.111,16.977L24.204,16.878C24.085,16.704 23.997,16.509 23.938,16.293C23.88,16.076 23.851,15.841 23.851,15.588C23.851,15.288 23.894,15.013 23.979,14.763C24.065,14.513 24.19,14.3 24.353,14.124C24.515,13.948 24.714,13.814 24.947,13.721C25.181,13.628 25.447,13.581 25.744,13.581C25.999,13.581 26.227,13.611 26.427,13.67C26.627,13.73 26.809,13.823 26.974,13.951L27.043,13.877C27.154,13.76 27.24,13.68 27.299,13.638C27.358,13.597 27.418,13.576 27.478,13.576C27.535,13.576 27.581,13.595 27.616,13.632C27.652,13.669 27.67,13.72 27.67,13.784C27.67,13.89 27.588,14.027 27.425,14.196L27.316,14.31C27.548,14.653 27.664,15.08 27.664,15.593C27.664,15.895 27.623,16.169 27.542,16.415C27.461,16.662 27.338,16.876 27.176,17.056C27.013,17.237 26.813,17.376 26.575,17.472C26.338,17.567 26.066,17.615 25.76,17.615C25.257,17.615 24.851,17.491 24.541,17.243L24.483,17.315C24.44,17.361 24.396,17.408 24.349,17.457C24.302,17.506 24.255,17.544 24.208,17.573C24.161,17.601 24.107,17.615 24.047,17.615C23.991,17.615 23.944,17.595 23.906,17.554C23.869,17.513 23.851,17.468 23.851,17.418C23.851,17.347 23.871,17.279 23.913,17.213C23.955,17.148 24.021,17.069 24.111,16.977ZM24.764,16.29L26.472,14.475C26.389,14.394 26.283,14.329 26.154,14.281C26.026,14.233 25.893,14.209 25.755,14.209C25.533,14.209 25.339,14.263 25.172,14.37C25.005,14.478 24.876,14.635 24.785,14.844C24.695,15.052 24.65,15.3 24.65,15.588C24.65,15.85 24.688,16.084 24.764,16.29ZM26.751,14.912L25.048,16.716C25.245,16.897 25.48,16.987 25.755,16.987C25.957,16.987 26.142,16.937 26.311,16.836C26.48,16.734 26.615,16.578 26.715,16.367C26.815,16.156 26.865,15.896 26.865,15.588C26.865,15.341 26.827,15.116 26.751,14.912Z" style="fill:white;fill-rule:nonzero;stroke:white;stroke-width:0.03px;stroke-linecap:butt;stroke-miterlimit:1.41421;"/>
    </g>
</svg>
